<?xml version="1.0" encoding="UTF-8"?>
<svg xmlns="http://www.w3.org/2000/svg" width="261.667" height="63.926" viewBox="0 0 261.667 63.926">
  <g id="Group_70545" data-name="Group 70545" transform="translate(-96 -55.959)">
    <path id="Path_214" data-name="Path 214" d="M240.807,70.573h-7.941L231.375,75h-4.708l7.691-21.529h5.088L247.079,75H242.2Zm-1.258-3.71-2.691-8.471-2.778,8.471Zm23.293-6.076q1.93,2.059,1.93,6.047,0,4.206-1.9,6.412A6.11,6.11,0,0,1,258,75.451a5.09,5.09,0,0,1-3.158-.949,6.115,6.115,0,0,1-1.346-1.533v8.3h-4.123V59.078h3.992V61.43a6.684,6.684,0,0,1,1.432-1.636,5.272,5.272,0,0,1,3.305-1.066A6.271,6.271,0,0,1,262.842,60.787Zm-2.37,6.251a6.218,6.218,0,0,0-.847-3.257,2.912,2.912,0,0,0-2.72-1.417,3.1,3.1,0,0,0-3.114,2.147,8.116,8.116,0,0,0-.439,2.892q0,2.775,1.477,3.9a3.365,3.365,0,0,0,2.076.657,2.991,2.991,0,0,0,2.647-1.344A6.225,6.225,0,0,0,260.473,67.038Zm20.677-6.251q1.93,2.059,1.929,6.047,0,4.206-1.9,6.412a6.112,6.112,0,0,1-4.869,2.205,5.1,5.1,0,0,1-3.159-.949,6.138,6.138,0,0,1-1.345-1.533v8.3h-4.123V59.078h3.992V61.43a6.684,6.684,0,0,1,1.432-1.636,5.269,5.269,0,0,1,3.305-1.066A6.271,6.271,0,0,1,281.15,60.787Zm-2.37,6.251a6.208,6.208,0,0,0-.849-3.257,2.909,2.909,0,0,0-2.719-1.417,3.1,3.1,0,0,0-3.114,2.147,8.116,8.116,0,0,0-.439,2.892q0,2.775,1.477,3.9a3.362,3.362,0,0,0,2.076.657,2.993,2.993,0,0,0,2.647-1.344A6.224,6.224,0,0,0,278.78,67.038Zm5.761-7.96h4.679l3.319,11.743,3.393-11.743h4.475L294.661,75h-4.4Zm31.877,11.246a5.278,5.278,0,0,1-1.476,2.877,7.241,7.241,0,0,1-5.732,2.322,8.088,8.088,0,0,1-5.367-1.957q-2.325-1.957-2.325-6.368a8.859,8.859,0,0,1,2.091-6.339,7.2,7.2,0,0,1,5.454-2.205,8.365,8.365,0,0,1,3.582.745,6.279,6.279,0,0,1,2.632,2.352,8.027,8.027,0,0,1,1.214,3.286,21.14,21.14,0,0,1,.131,3.155H305.715a3.954,3.954,0,0,0,1.506,3.359,3.551,3.551,0,0,0,2.076.6,2.991,2.991,0,0,0,2.091-.73,3.482,3.482,0,0,0,.775-1.1ZM312.3,65.446a3.579,3.579,0,0,0-1.009-2.5,3.073,3.073,0,0,0-2.222-.862,2.855,2.855,0,0,0-2.252.906,4.545,4.545,0,0,0-.994,2.454Zm14.651-3.286a2.9,2.9,0,0,0-2.91,1.8,6.159,6.159,0,0,0-.409,2.425V75h-4.154V59.108H323.5V61.43a7.071,7.071,0,0,1,1.521-1.767,5.286,5.286,0,0,1,3.26-.964,6.1,6.1,0,0,1,4.035,1.3q1.58,1.285,1.58,4.279V75h-4.27V65.315a4.428,4.428,0,0,0-.336-1.928A2.366,2.366,0,0,0,326.947,62.16Zm18.1,9.873v3.111l-1.975.073q-2.953.1-4.035-1.022a3.042,3.042,0,0,1-.7-2.205v-9.8h-2.224V59.224h2.224v-4.44h4.123v4.44h2.589v2.965H342.46V70.6a1.926,1.926,0,0,0,.25,1.227,2.809,2.809,0,0,0,1.52.234h.4Zm12.9.716q-.058.073-.292.438a2.929,2.929,0,0,1-.555.643,5.779,5.779,0,0,1-1.9,1.2,6.389,6.389,0,0,1-2.135.321q-3.538,0-4.767-2.541a9.718,9.718,0,0,1-.687-4.133v-9.6h4.27v9.6a5.015,5.015,0,0,0,.322,2.045,2.227,2.227,0,0,0,2.237,1.212,2.925,2.925,0,0,0,2.925-1.723,6.249,6.249,0,0,0,.409-2.468V59.078H362V75h-4.051Zm16.1-9.83q-2.516,0-3.378,1.636a6.353,6.353,0,0,0-.483,2.833V75h-4.2V59.078h3.977v2.775a8.807,8.807,0,0,1,1.682-2.176,4.58,4.58,0,0,1,3.041-.979,1,1,0,0,1,.191.015c.059,0,.18,0,.366.015v4.265c-.263-.029-.5-.049-.7-.058S374.171,62.92,374.045,62.92Zm17.3,7.405a5.273,5.273,0,0,1-1.477,2.877,7.238,7.238,0,0,1-5.731,2.322,8.088,8.088,0,0,1-5.367-1.957q-2.325-1.957-2.325-6.368a8.865,8.865,0,0,1,2.09-6.339,7.2,7.2,0,0,1,5.455-2.205,8.365,8.365,0,0,1,3.582.745,6.279,6.279,0,0,1,2.632,2.352,8.026,8.026,0,0,1,1.214,3.286,21.132,21.132,0,0,1,.131,3.155H380.64a3.954,3.954,0,0,0,1.506,3.359,3.551,3.551,0,0,0,2.076.6,2.991,2.991,0,0,0,2.091-.73,3.484,3.484,0,0,0,.775-1.1Zm-4.124-4.878a3.574,3.574,0,0,0-1.008-2.5,3.075,3.075,0,0,0-2.222-.862,2.855,2.855,0,0,0-2.252.906,4.545,4.545,0,0,0-.995,2.454ZM406.667,75H392.908V71.756l8.174-9.289h-7.619V59.078H406.39V62.54L398.3,71.581h8.364Z" transform="translate(-49 20.556)"></path>
    <path id="ao" d="M70.724,45.3c2.458,5.347,1.382,12.18-3.38,15.893a12.98,12.98,0,0,1-9.219,2.673c-7.528-.743-13.059-8.319-11.369-15.448.614-2.674,2.458-4.752,3.38-7.278a2.671,2.671,0,0,0,.307-1.039,15.826,15.826,0,0,0,1.075-5.347,8.791,8.791,0,0,0-.154-2.079,7.269,7.269,0,0,0-.307-1.782q-.231-.669-.461-1.337a15.339,15.339,0,0,0-14.6-9.8,15.553,15.553,0,0,0-14.6,9.8q-.231.67-.461,1.337a7.2,7.2,0,0,0-.307,1.782,9.449,9.449,0,0,0-.154,2.079,12.364,12.364,0,0,0,1.075,5.347c.154.3.154.743.307,1.039.921,2.525,2.765,4.752,3.38,7.278,1.689,7.129-3.994,14.705-11.369,15.448A12.982,12.982,0,0,1,4.656,61.2C-.107,57.484-1.182,50.651,1.276,45.3c.614-1.337,13.98-22.725,19.973-31.935,2-2.97,3.84-6.09,5.991-8.763.461-.446.921-1.039,1.382-1.486a10.277,10.277,0,0,1,14.75,0,13.589,13.589,0,0,1,1.382,1.486,80.727,80.727,0,0,1,5.991,8.763C56.736,22.727,70.1,43.967,70.718,45.3Zm-3.687-35.8a4.755,4.755,0,1,1,4.916-4.752A4.774,4.774,0,0,1,67.037,9.508Z" transform="translate(96 55.959)" fill="#007bff"></path>
  </g>
</svg>
